<?xml version="1.0" encoding="UTF-8"?>
<svg xmlns="http://www.w3.org/2000/svg" width="256" height="256" viewBox="0 0 256 256">
  <defs>
    <linearGradient id="g" x1="0" y1="0" x2="1" y2="1">
      <stop offset="0%" stop-color="#63c36e"/>
      <stop offset="100%" stop-color="#3fbf5a"/>
    </linearGradient>
  </defs>
  <rect width="256" height="256" rx="56" ry="56" fill="url(#g)"/>
  <g fill="#ffffff">
    <path d="M78 150c0-22.5 18.5-32.6 42.6-32.6h21.8c5.2 0 9.4-4.2 9.4-9.4 0-12.4-10.4-20-28.1-20-14.4 0-27 5.2-38 14.7L68 85.9C83.4 72.2 103.2 64 125.7 64c30.2 0 50.1 15.3 50.1 38.6 0 22.2-16.7 35.9-41.1 35.9h-22c-9.1 0-14.2 3.6-14.2 10.6v3.2h77v20H78V150z"/>
  </g>
</svg>

